# xmcd CD database file
#
# Track frame offsets:
#	150
#	11002
#	23442
#	38810
#	55612
#	65092
#	81592
#	91890
#	106292
#	120762
#	134092
#	149765
#
# Disc length: 2166 seconds
#
# Revision: 0
# Processed by: cddbd v1.5.1PL0 Copyright (c) Steve Scherf et al.
# Submitted via: CDex 1.50beta10
#
DISCID=a008740c
DTITLE=Slim Whitman - Red River Valley
DYEAR=1992
DGENRE=Country
TTITLE0=Rhinestone Cowbow
TTITLE1=Mr. Ting A Ling (Steel Guitar Man)
TTITLE2=Too Young
TTITLE3=Let Me Call You Sweetheart
TTITLE4=It's A Small World
TTITLE5=Somewhere My Love (Lara's Theme)
TTITLE6=Una Paloma Blanca
TTITLE7=Red River Valley
TTITLE8=My Elusive Dreams
TTITLE9=Cara Mia
TTITLE10=When The Moon Comes over The Mountain
TTITLE11=Now Is The Hour
EXTD=YEAR: 1992
EXTT0=
EXTT1=
EXTT2=
EXTT3=
EXTT4=
EXTT5=
EXTT6=
EXTT7=
EXTT8=
EXTT9=
EXTT10=
EXTT11=
PLAYORDER=
